# xmcd
#
# Track frame offsets:
#	150
#	12125
#	24018
#	36690
#	49810
#	63393
#	77735
#	91775
#	103213
#	117998
#	127835
#	140943
#	154978
#	168020
#	186928
#	205850
#	222548
#
# Disc length: 3158 seconds
#
# Revision: 1
# Processed by: cddbd v1.5.1PL0 Copyright (c) Steve Scherf et al.
# Submitted via: CDex 1.50Beta5
#
DISCID=ed0c5411
DTITLE=石原裕次郎 - LEGENDARY COVERS,THE
DYEAR=2002
DGENRE=Pop
TTITLE0=石原裕次郎/なつかしき思い出
TTITLE1=石原裕次郎/センチメンタル・リーズン
TTITLE2=石原裕次郎/ラブレター
TTITLE3=石原裕次郎/珊瑚礁の彼方に
TTITLE4=石原裕次郎/ベリー・ソート・オブ・ユー
TTITLE5=石原裕次郎/ブルー・ハワイ
TTITLE6=石原裕次郎/ケ・カリ・ネイ・アウ
TTITLE7=石原裕次郎/想い出のサンフランシスコ
TTITLE8=石原裕次郎/さらばローマ
TTITLE9=石原裕次郎/枯葉
TTITLE10=石原裕次郎/時には母のない子のように
TTITLE11=石原裕次郎/ホワイト・クリスマス
TTITLE12=YUJIRO ISHIHARA/アゲイン
TTITLE13=YUJIRO ISHIHARA/時のすぎゆくまま
TTITLE14=YUJIRO ISHIHARA/ルビー
TTITLE15=石原裕次郎/慕情
TTITLE16=石原裕次郎/マイ・ファニー・バレンタイン
EXTD=
EXTT0=
EXTT1=
EXTT2=
EXTT3=
EXTT4=
EXTT5=
EXTT6=
EXTT7=
EXTT8=
EXTT9=
EXTT10=
EXTT11=
EXTT12=
EXTT13=
EXTT14=
EXTT15=
EXTT16=
PLAYORDER=
